<svg height="512pt" viewBox="-136 0 511 512" width="512pt" xmlns="http://www.w3.org/2000/svg"><path d="m196.808594 298.667969h-153.683594c-23.5 0-42.625-19.125-42.625-42.625v-85.375c0-4.71875 3.824219-8.535157 8.535156-8.535157h221.863282c4.710937 0 8.535156 3.816407 8.535156 8.535157v85.375c0 23.5-19.125 42.625-42.625 42.625zm-179.242188-119.46875v76.84375c0 14.089843 11.46875 25.558593 25.558594 25.558593h153.675781c14.097657 0 25.566407-11.46875 25.566407-25.558593v-76.84375zm0 0"/><path d="m230.898438 179.199219h-221.863282c-4.710937 0-8.535156-3.8125-8.535156-8.53125v-21.421875c0-10.578125 4.609375-20.589844 12.636719-27.476563.300781-.253906.625-.492187.957031-.707031l67.140625-42.921875c1.375-.871094 2.96875-1.339844 4.597656-1.339844h68.269531c1.628907 0 3.222657.46875 4.597657 1.339844l67.140625 42.921875c.332031.214844.65625.453125.957031.707031 8.027344 6.886719 12.636719 16.898438 12.636719 27.476563v21.421875c0 4.71875-3.824219 8.53125-8.535156 8.53125zm-213.332032-17.066407h204.800782v-12.886718c0-5.410156-2.277344-10.527344-6.273438-14.144532l-64.484375-41.234374h-63.285156l-64.492188 41.234374c-3.988281 3.617188-6.265625 8.734376-6.265625 14.144532zm0 0"/><path d="m154.101562 93.867188h-68.269531c-4.710937 0-8.53125-3.816407-8.53125-8.535157v-34.132812c0-4.71875 3.820313-8.53125 8.53125-8.53125h68.269531c4.707032 0 8.53125 3.8125 8.53125 8.53125v34.132812c0 4.71875-3.824218 8.535157-8.53125 8.535157zm-59.734374-17.066407h51.199218v-17.066406h-51.199218zm0 0"/><path d="m154.101562 349.867188h-128c-4.710937 0-8.535156-3.816407-8.535156-8.535157s3.824219-8.53125 8.535156-8.53125h128c4.707032 0 8.53125 3.8125 8.53125 8.53125s-3.824218 8.535157-8.53125 8.535157zm0 0"/><path d="m213.832031 349.867188h-17.066406c-4.710937 0-8.53125-3.816407-8.53125-8.535157s3.820313-8.53125 8.53125-8.53125h17.066406c4.710938 0 8.535157 3.8125 8.535157 8.53125s-3.824219 8.535157-8.535157 8.535157zm0 0"/><path d="m213.832031 401.066406h-128c-4.710937 0-8.53125-3.8125-8.53125-8.53125 0-4.722656 3.820313-8.535156 8.53125-8.535156h128c4.710938 0 8.535157 3.8125 8.535157 8.535156 0 4.71875-3.824219 8.53125-8.535157 8.53125zm0 0"/><path d="m43.167969 401.066406h-17.066407c-4.710937 0-8.535156-3.8125-8.535156-8.53125 0-4.722656 3.824219-8.535156 8.535156-8.535156h17.066407c4.710937 0 8.53125 3.8125 8.53125 8.535156 0 4.71875-3.820313 8.53125-8.53125 8.53125zm0 0"/><path d="m162.660156 59.734375h-85.386718c-9.394532 0-17.039063-7.648437-17.039063-17.042969v-25.648437c0-9.398438 7.644531-17.042969 17.039063-17.042969h85.386718c9.394532 0 17.039063 7.644531 17.039063 17.042969v25.648437c0 9.394532-7.644531 17.042969-17.039063 17.042969zm0-17.066406v8.53125zm-.027344-25.625-85.359374.023437.027343 25.625 85.339844-.023437zm0 0"/><path d="m119.964844 512c-28.226563 0-51.199219-19.140625-51.199219-42.667969 0-4.71875 3.824219-8.53125 8.535156-8.53125 4.710938 0 8.53125 3.8125 8.53125 8.53125 0 14.117188 15.308594 25.601563 34.132813 25.601563 18.828125 0 34.136718-11.484375 34.136718-25.601563 0-4.71875 3.820313-8.53125 8.53125-8.53125 4.710938 0 8.535157 3.8125 8.535157 8.53125 0 23.527344-22.972657 42.667969-51.203125 42.667969zm0 0"/><path d="m213.789062 503.507812h-65.917968c-3.730469 0-7.023438-2.414062-8.140625-5.972656-1.117188-3.558594.203125-7.421875 3.257812-9.554687 7.167969-4.992188 11.113281-11.625 11.113281-18.648438 0-4.71875 3.820313-8.53125 8.53125-8.53125 4.710938 0 8.535157 3.8125 8.535157 8.53125 0 5.964844-1.511719 11.777344-4.34375 17.109375h46.964843c4.730469 0 8.578126-3.847656 8.578126-8.574218v-68.222657c0-4.730469-3.847657-8.578125-8.578126-8.578125-4.707031 0-8.53125-3.8125-8.53125-8.53125 0-4.722656 3.824219-8.535156 8.53125-8.535156 4.730469 0 8.578126-3.847656 8.578126-8.574219v-16.984375c0-4.726562-3.847657-8.574218-8.578126-8.574218-4.707031 0-8.53125-3.816407-8.53125-8.535157s3.824219-8.53125 8.53125-8.53125c4.730469 0 8.578126-3.847656 8.578126-8.578125v-16.980468c0-4.726563-3.847657-8.574219-8.578126-8.574219h-187.644531c-4.730469 0-8.578125 3.847656-8.578125 8.574219v16.980468c0 4.730469 3.847656 8.578125 8.578125 8.578125 4.707031 0 8.53125 3.8125 8.53125 8.53125s-3.824219 8.535157-8.53125 8.535157c-4.730469 0-8.578125 3.847656-8.578125 8.574218v16.984375c0 4.726563 3.847656 8.574219 8.578125 8.574219 4.707031 0 8.53125 3.8125 8.53125 8.535156 0 4.71875-3.824219 8.53125-8.53125 8.53125-4.730469 0-8.578125 3.847656-8.578125 8.578125v68.222657c0 4.726562 3.847656 8.574218 8.578125 8.574218h46.964844c-2.832031-5.332031-4.34375-11.144531-4.34375-17.109375 0-4.71875 3.824219-8.53125 8.535156-8.53125 4.710938 0 8.53125 3.8125 8.53125 8.53125 0 7.023438 3.945313 13.65625 11.113281 18.648438 3.054688 2.132812 4.375 5.996093 3.257813 9.554687s-4.410156 5.972656-8.140625 5.972656h-65.917969c-14.140625 0-25.644531-11.5-25.644531-25.640624v-68.222657c0-6.574219 2.484375-12.570312 6.5625-17.109375-4.078125-4.542968-6.5625-10.539062-6.5625-17.109375v-16.984375c0-6.570312 2.484375-12.566406 6.5625-17.109375-4.078125-4.539062-6.5625-10.539062-6.5625-17.109375v-16.980468c0-14.140626 11.503906-25.640626 25.644531-25.640626h187.644531c14.140626 0 25.644532 11.5 25.644532 25.640626v16.980468c0 6.570313-2.484375 12.570313-6.5625 17.109375 4.078125 4.542969 6.5625 10.539063 6.5625 17.109375v16.984375c0 6.570313-2.484375 12.566407-6.5625 17.109375 4.078125 4.539063 6.5625 10.535156 6.5625 17.109375v68.222657c0 14.140624-11.503906 25.640624-25.644532 25.640624zm0 0"/><path d="m213.832031 401.066406h-128c-4.710937 0-8.53125-3.8125-8.53125-8.53125 0-4.722656 3.820313-8.535156 8.53125-8.535156h128c4.710938 0 8.535157 3.8125 8.535157 8.535156 0 4.71875-3.824219 8.53125-8.535157 8.53125zm0 0"/><path d="m43.167969 401.066406h-17.066407c-4.710937 0-8.535156-3.8125-8.535156-8.53125 0-4.722656 3.824219-8.535156 8.535156-8.535156h17.066407c4.710937 0 8.53125 3.8125 8.53125 8.535156 0 4.71875-3.820313 8.53125-8.53125 8.53125zm0 0"/><path d="m94.367188 264.535156h-85.332032c-4.710937 0-8.535156-3.816406-8.535156-8.535156v-51.199219c0-4.71875 3.824219-8.535156 8.535156-8.535156h85.332032c4.710937 0 8.53125 3.816406 8.53125 8.535156v51.199219c0 4.71875-3.820313 8.535156-8.53125 8.535156zm-76.800782-17.070312h68.265625v-34.132813h-68.265625zm0 0"/><path d="m230.898438 264.535156h-51.199219c-4.710938 0-8.53125-3.816406-8.53125-8.535156v-51.199219c0-4.71875 3.820312-8.535156 8.53125-8.535156h51.199219c4.710937 0 8.535156 3.816406 8.535156 8.535156v51.199219c0 4.71875-3.824219 8.535156-8.535156 8.535156zm-42.664063-17.070312h34.132813v-34.132813h-34.132813zm0 0"/></svg>