<?xml version="1.0" encoding="iso-8859-1"?>
<!-- Generator: Adobe Illustrator 19.0.0, SVG Export Plug-In . SVG Version: 6.00 Build 0)  -->
<svg version="1.1" id="Layer_1" xmlns="http://www.w3.org/2000/svg" xmlns:xlink="http://www.w3.org/1999/xlink" x="0px" y="0px"
	 viewBox="0 0 512 512" style="enable-background:new 0 0 512 512;" xml:space="preserve">
<g>
	<g>
		<path d="M345.6,133.565h-33.948V89.044h11.13c6.146,0,11.13-4.983,11.13-11.13V11.13c0-6.147-4.984-11.13-11.13-11.13H189.217
			c-6.146,0-11.13,4.983-11.13,11.13v66.783c0,6.147,4.984,11.13,11.13,11.13h11.13v44.522H166.4
			c-54.93,0-99.617,44.688-99.617,99.617v89.6v44.522v94.052c0,27.925,22.718,50.643,50.643,50.643h277.148
			c27.925,0,50.643-22.718,50.643-50.643v-94.052v-44.522v-89.6C445.217,178.253,400.53,133.565,345.6,133.565z M200.348,22.261
			h111.304v44.522h-11.13h-89.043h-11.13V22.261z M256,100.174h-33.391v-11.13h66.783v44.522h-66.783v-11.13H256
			c6.146,0,11.13-4.983,11.13-11.13S262.146,100.174,256,100.174z M422.957,461.357c0,15.651-12.732,28.383-28.383,28.383H117.426
			c-15.651,0-28.383-12.732-28.383-28.383v-82.922h333.913V461.357z M422.957,311.652H233.925c-6.146,0-11.13,4.983-11.13,11.13
			s4.984,11.13,11.13,11.13h189.031v22.261H89.043v-22.261h77.913c6.146,0,11.13-4.983,11.13-11.13s-4.984-11.13-11.13-11.13H89.043
			v-78.47c0-42.654,34.702-77.357,77.357-77.357h45.078h89.043H345.6c42.654,0,77.357,34.702,77.357,77.357V311.652z"/>
	</g>
</g>
<g>
	<g>
		<path d="M211.356,320.612c-0.144-0.712-0.356-1.414-0.634-2.081c-0.278-0.679-0.623-1.325-1.024-1.926
			c-0.411-0.612-0.879-1.18-1.391-1.692c-0.512-0.512-1.08-0.979-1.692-1.38c-0.601-0.401-1.247-0.746-1.914-1.024
			c-0.679-0.278-1.38-0.501-2.081-0.634c-3.629-0.735-7.469,0.456-10.051,3.039c-0.512,0.512-0.979,1.08-1.38,1.692
			c-0.4,0.601-0.746,1.247-1.024,1.926c-0.278,0.668-0.489,1.369-0.633,2.081c-0.146,0.712-0.223,1.447-0.223,2.17
			s0.077,1.458,0.223,2.17c0.144,0.712,0.355,1.414,0.633,2.093c0.278,0.668,0.624,1.313,1.024,1.914
			c0.401,0.612,0.868,1.18,1.38,1.692c2.07,2.07,4.942,3.261,7.869,3.261c0.722,0,1.458-0.078,2.182-0.223
			c0.701-0.134,1.402-0.356,2.081-0.634c0.668-0.278,1.313-0.623,1.914-1.024c0.612-0.401,1.18-0.868,1.692-1.38
			c0.512-0.512,0.981-1.08,1.391-1.692c0.401-0.601,0.746-1.247,1.024-1.914c0.278-0.679,0.49-1.38,0.634-2.093
			c0.145-0.712,0.211-1.447,0.211-2.17C211.567,322.059,211.499,321.324,211.356,320.612z"/>
	</g>
</g>
<g>
</g>
<g>
</g>
<g>
</g>
<g>
</g>
<g>
</g>
<g>
</g>
<g>
</g>
<g>
</g>
<g>
</g>
<g>
</g>
<g>
</g>
<g>
</g>
<g>
</g>
<g>
</g>
<g>
</g>
</svg>
