<?xml version="1.0" encoding="iso-8859-1"?>
<!-- Generator: Adobe Illustrator 19.0.0, SVG Export Plug-In . SVG Version: 6.00 Build 0)  -->
<svg version="1.1" id="Capa_1" xmlns="http://www.w3.org/2000/svg" xmlns:xlink="http://www.w3.org/1999/xlink" x="0px" y="0px"
	 viewBox="0 0 480 480" style="enable-background:new 0 0 480 480;" xml:space="preserve">
<g>
	<g>
		<g>
			<rect x="136" y="24" width="32" height="16"/>
			<rect x="184" y="24" width="16" height="16"/>
			<path d="M472,288h-96c0-13.255-10.745-24-24-24s-24,10.745-24,24h-8V80h48c4.418,0,8-3.582,8-8V8c0-4.418-3.582-8-8-8H112
				c-4.418,0-8,3.582-8,8v64c0,4.418,3.582,8,8,8h48v40h-8c0-13.255-10.745-24-24-24s-24,10.745-24,24H8c-4.418,0-8,3.582-8,8v48
				c0,4.418,3.582,8,8,8h96c0,13.255,10.745,24,24,24s24-10.745,24-24h8v216c0,44.183,35.817,80,80,80s80-35.817,80-80v-48h8
				c0,13.255,10.745,24,24,24s24-10.745,24-24h96c4.418,0,8-3.582,8-8v-48C480,291.582,476.418,288,472,288z M104,168H16v-32h88V168
				z M136,184c0,4.418-3.582,8-8,8s-8-3.582-8-8v-64c0-4.418,3.582-8,8-8s8,3.582,8,8V184z M160,168h-8v-32h8V168z M304,400
				c0,35.346-28.654,64-64,64c-35.346,0-64-28.654-64-64V80h128V400z M120,64V16h240v48H120z M328,336h-8v-32h8V336z M360,352
				c0,4.418-3.582,8-8,8s-8-3.582-8-8v-64c0-4.418,3.582-8,8-8s8,3.582,8,8V352z M464,336h-88v-32h88V336z"/>
			<path d="M240,280c22.08-0.026,39.974-17.92,40-40c0-20.096-28.736-48.344-34.496-53.808c-3.086-2.926-7.922-2.926-11.008,0
				C228.736,191.656,200,219.904,200,240C200.026,262.08,217.92,279.974,240,280z M240,203.296L240,203.296
				c11.336,11.848,24,28.296,24,36.704c0,13.255-10.745,24-24,24s-24-10.745-24-24C216,231.608,228.664,215.2,240,203.296z"/>
			<path d="M250.344,301.656L260.688,312H208v16h52.688l-10.344,10.344l11.312,11.312l24-24L285.6,325.6
				c3.123-2.961,3.255-7.892,0.294-11.016c-0.08-0.085-0.162-0.167-0.246-0.248l-23.992-23.992L250.344,301.656z"/>
		</g>
	</g>
</g>
<g>
</g>
<g>
</g>
<g>
</g>
<g>
</g>
<g>
</g>
<g>
</g>
<g>
</g>
<g>
</g>
<g>
</g>
<g>
</g>
<g>
</g>
<g>
</g>
<g>
</g>
<g>
</g>
<g>
</g>
</svg>
