<svg height="512pt" viewBox="0 0 512.01727 512" width="512pt" xmlns="http://www.w3.org/2000/svg"><path d="m271.8125 35.019531-16.90625-30.90625c-1.628906-2.558593-4.449219-4.1054685-7.480469-4.1054685-3.035156 0-5.855469 1.5468755-7.484375 4.1054685l-16.90625 30.90625-30.898437 16.90625c-2.734375 1.496094-4.433594 4.367188-4.433594 7.484375 0 3.117188 1.699219 5.984375 4.433594 7.484375l30.898437 16.902344 16.90625 30.910156c1.496094 2.730469 4.367188 4.429688 7.484375 4.429688 3.117188 0 5.984375-1.699219 7.480469-4.429688l16.90625-30.910156 30.898438-16.902344c2.734374-1.5 4.433593-4.367187 4.433593-7.484375 0-3.117187-1.699219-5.988281-4.433593-7.484375zm-10.375 34.988281c-1.445312.785157-2.628906 1.96875-3.414062 3.414063l-10.597657 19.402344-10.617187-19.410157c-.785156-1.445312-1.96875-2.628906-3.414063-3.414062l-19.386719-10.589844 19.40625-10.617187c1.441407-.785157 2.625-1.96875 3.410157-3.414063l10.601562-19.386718 10.613281 19.414062c.785157 1.441406 1.972657 2.628906 3.414063 3.414062l19.386719 10.589844zm0 0"/><path d="m366.890625 221.542969c-30.421875.003906-60.0625 9.636719-84.675781 27.519531l7.75-77.003906c.480468-4.816406-1.101563-9.609375-4.355469-13.1875-3.253906-3.582032-7.875-5.609375-12.714844-5.585938h-139.089843l9.992187-18.277344 30.898437-16.90625c2.734376-1.496093 4.433594-4.367187 4.433594-7.484374 0-3.117188-1.699218-5.984376-4.433594-7.484376l-30.898437-16.902343-16.890625-30.917969c-1.628906-2.554688-4.449219-4.105469-7.480469-4.105469-3.035156 0-5.855469 1.550781-7.484375 4.105469l-16.90625 30.910156-30.898437 16.902344c-2.734375 1.5-4.433594 4.367188-4.433594 7.484375s1.699219 5.984375 4.433594 7.484375l30.898437 16.902344 9.992188 18.28125h-87.917969c-4.832031-.011719-9.441406 2.023437-12.683594 5.601562-3.246093 3.578125-4.824219 8.363282-4.3398435 13.171875l31.0625005 308.90625c1.714843 17.527344 16.519531 30.851563 34.132812 30.71875h159.574219c17.59375.109375 32.375-13.207031 34.089843-30.71875l1.613282-16.050781c45.023437 48.722656 117.378906 60.667969 175.671875 29 58.296875-31.667969 87.660156-98.867188 71.292969-163.160156-16.371094-64.289063-74.289063-109.265625-140.632813-109.203125zm-280.882813-110.933594 19.40625-10.617187c1.441407-.785157 2.625-1.96875 3.410157-3.410157l10.601562-19.390625 10.613281 19.414063c.785157 1.441406 1.972657 2.628906 3.414063 3.414062l19.386719 10.589844-19.402344 10.617187c-1.445312.785157-2.628906 1.96875-3.414062 3.410157l-10.597657 19.390625-10.617187-19.414063c-.785156-1.445312-1.96875-2.628906-3.414063-3.414062zm187.015626 59.734375-7.355469 73.0625c-2.089844-1.058594-4.085938-2.253906-6.1875-3.550781-19.332031-13.058594-44.664063-13.058594-64 0-6.65625 4.929687-14.773438 7.492187-23.054688 7.285156-8.253906.207031-16.339843-2.34375-22.980469-7.25-9.34375-6.601563-20.554687-10.039063-31.992187-9.816406-11.441406-.226563-22.652344 3.21875-31.992187 9.832031-6.613282 4.890625-14.671876 7.4375-22.894532 7.234375-8.230468.207031-16.296875-2.332031-22.929687-7.207031-5.027344-3.371094-10.523438-5.976563-16.316407-7.734375l-6.210937-61.855469zm-31.113282 308.90625c-.878906 8.753906-8.265625 15.402344-17.066406 15.359375h-159.605469c-8.796875.042969-16.1875-6.605469-17.066406-15.359375l-22.929687-227.933594c1.816406.953125 3.582031 1.996094 5.417968 3.121094 9.324219 6.574219 20.5 9.996094 31.90625 9.773438 11.410156.222656 22.589844-3.21875 31.898438-9.816407 6.640625-4.910156 14.730468-7.460937 22.988281-7.253906 8.257813-.203125 16.347656 2.347656 22.988281 7.253906 9.339844 6.601563 20.546875 10.042969 31.984375 9.816407 11.433594.222656 22.640625-3.210938 31.980469-9.804688 13.839844-9.671875 32.242188-9.671875 46.082031 0 4.195313 2.742188 8.683594 5.011719 13.378907 6.765625l-.390626 3.949219c-47.738281 48.378906-55.289062 123.492187-18.132812 180.40625zm124.980469 15.359375c-70.691406 0-128-57.308594-128-128s57.308594-128 128-128 128 57.308594 128 128c-.078125 70.660156-57.339844 127.921875-128 128zm0 0"/><path d="m430.890625 290.96875c-1.953125-1.140625-4.285156-1.457031-6.472656-.882812-2.191407.578124-4.058594 2-5.199219 3.957031l-74.601562 127.957031-32.101563-25.890625c-3.667969-2.960937-9.042969-2.386719-12 1.285156-2.960937 3.667969-2.386719 9.042969 1.28125 12l39.828125 32.121094c1.515625 1.222656 3.40625 1.894531 5.359375 1.894531.515625.003906 1.035156-.046875 1.542969-.144531 2.445312-.449219 4.574218-1.941406 5.828125-4.089844l79.640625-136.53125c1.140625-1.960937 1.453125-4.292969.867187-6.480469-.582031-2.191406-2.011719-4.058593-3.972656-5.195312zm0 0"/></svg>