<?xml version="1.0" encoding="iso-8859-1"?>
<!-- Generator: Adobe Illustrator 19.0.0, SVG Export Plug-In . SVG Version: 6.00 Build 0)  -->
<svg version="1.1" id="Layer_1" xmlns="http://www.w3.org/2000/svg" xmlns:xlink="http://www.w3.org/1999/xlink" x="0px" y="0px"
	 viewBox="0 0 512 512" style="enable-background:new 0 0 512 512;" xml:space="preserve">
<g>
	<g>
		<path d="M349.867,0H162.133c-14.132,0.015-25.585,11.468-25.6,25.6v25.6c-0.001,4.712,3.817,8.532,8.529,8.533
			c0.001,0,0.003,0,0.004,0h8.533v128c0.005,23.22,10.535,45.187,28.634,59.733h-20.101c-14.132,0.015-25.585,11.468-25.6,25.6
			v179.2c0.033,10.813,6.868,20.435,17.067,24.027V486.4c0.015,14.132,11.468,25.585,25.6,25.6h17.067
			c14.132-0.015,25.585-11.468,25.6-25.6v-8.533h68.267v8.533c0.015,14.132,11.468,25.585,25.6,25.6H332.8
			c14.132-0.015,25.585-11.468,25.6-25.6v-10.106c10.199-3.592,17.034-13.214,17.067-24.027v-179.2
			c-0.015-14.132-11.468-25.585-25.6-25.6h-20.101c18.099-14.546,28.629-36.513,28.634-59.733v-128h8.533
			c4.712,0.001,8.532-3.817,8.533-8.529c0-0.002,0-0.003,0-0.004V25.6C375.451,11.468,363.999,0.015,349.867,0z M204.8,486.4
			c-0.005,4.711-3.822,8.529-8.533,8.533H179.2c-4.711-0.005-8.529-3.822-8.533-8.533v-8.533H204.8V486.4z M341.333,486.4
			c-0.005,4.711-3.823,8.529-8.533,8.533h-17.067c-4.711-0.005-8.529-3.822-8.533-8.533v-8.533h34.133V486.4z M349.867,264.533
			c4.711,0.005,8.529,3.823,8.533,8.533v179.2c-0.005,4.711-3.822,8.529-8.533,8.533H162.133c-4.711-0.005-8.529-3.823-8.533-8.533
			v-179.2c0.005-4.711,3.822-8.529,8.533-8.533H281.6H349.867z M341.333,187.733c-0.039,32.974-26.76,59.695-59.733,59.733h-51.2
			c-32.974-0.038-59.695-26.759-59.733-59.733v-128h77.231c2.237,20.97,21.05,36.155,42.02,33.918
			c17.882-1.908,32.01-16.035,33.918-33.918h17.498V187.733z M264.965,59.733h41.803c-2.356,11.544-13.624,18.992-25.167,16.636
			C273.223,74.659,266.675,68.112,264.965,59.733z M358.4,42.667H153.6V25.6c0.005-4.711,3.822-8.529,8.533-8.533h187.733
			c4.711,0.005,8.529,3.822,8.533,8.533V42.667z"/>
	</g>
</g>
<g>
	<g>
		<path d="M324.267,281.6h-51.2c-4.712-0.001-8.532,3.817-8.533,8.529c0,0.001,0,0.003,0,0.004V307.2
			c0,4.713-3.82,8.533-8.533,8.533c-4.713,0-8.533-3.82-8.533-8.533v-17.067c0.001-4.712-3.817-8.532-8.529-8.533
			c-0.002,0-0.003,0-0.004,0h-51.2c-9.421,0.011-17.056,7.645-17.067,17.067v128c0.011,9.421,7.645,17.056,17.067,17.067h136.533
			c9.421-0.011,17.056-7.645,17.067-17.067v-128C341.323,289.245,333.688,281.611,324.267,281.6z M273.963,426.667h-35.925
			l-6.638-59.733h49.2L273.963,426.667z M324.267,426.667h-33.135l7.481-67.325c0.522-4.682-2.85-8.9-7.532-9.422
			c-0.315-0.035-0.631-0.053-0.948-0.053h-68.267c-4.711-0.001-8.531,3.817-8.532,8.527c0,0.317,0.017,0.633,0.053,0.948
			l7.481,67.325h-33.135v-128H230.4v8.533c0,14.138,11.461,25.6,25.6,25.6c14.139,0,25.6-11.461,25.6-25.6v-8.533h42.667V426.667z"
			/>
	</g>
</g>
<g>
	<g>
		<path d="M255.317,210.092c-0.433-1.034-1.039-1.986-1.791-2.817c-3.421-3.158-8.695-3.158-12.117,0
			c-0.755,0.829-1.363,1.782-1.796,2.817c-0.906,2.066-0.906,4.417,0,6.483c0.435,1.034,1.042,1.986,1.795,2.817
			c2.441,2.444,6.125,3.154,9.3,1.792c1.034-0.433,1.987-1.039,2.817-1.792c0.78-0.809,1.39-1.767,1.792-2.817
			c0.478-1.012,0.713-2.123,0.683-3.242C255.986,212.219,255.754,211.117,255.317,210.092z"/>
	</g>
</g>
<g>
	<g>
		<path d="M281.6,170.667c-4.713,0-8.533,3.82-8.533,8.533c0.012,1.115,0.243,2.216,0.679,3.242
			c0.435,1.034,1.042,1.986,1.796,2.817c3.365,3.3,8.752,3.3,12.117,0h0.001c0.751-0.832,1.357-1.784,1.792-2.817
			c0.478-1.012,0.712-2.123,0.683-3.242C290.133,174.487,286.313,170.667,281.6,170.667z"/>
	</g>
</g>
<g>
	<g>
		<path d="M256,102.4c-14.138,0-25.6,11.461-25.6,25.6s11.461,25.6,25.6,25.6c14.132-0.015,25.585-11.468,25.6-25.6
			C281.6,113.862,270.138,102.4,256,102.4z M256,136.533c-4.713,0-8.533-3.82-8.533-8.533s3.82-8.533,8.533-8.533
			c4.713,0,8.533,3.82,8.533,8.533C264.529,132.711,260.711,136.529,256,136.533z"/>
	</g>
</g>
<g>
</g>
<g>
</g>
<g>
</g>
<g>
</g>
<g>
</g>
<g>
</g>
<g>
</g>
<g>
</g>
<g>
</g>
<g>
</g>
<g>
</g>
<g>
</g>
<g>
</g>
<g>
</g>
<g>
</g>
</svg>
